<svg width="568" height="724" viewBox="0 0 568 724" fill="none" xmlns="http://www.w3.org/2000/svg">
<rect width="568" height="724" fill="#C4C4C4" fill-opacity="0.3"/>
<g clip-path="url(#clip0)">
<path d="M262.654 386.497V555.986" stroke="#A4A4A4" stroke-width="3" stroke-linecap="round" stroke-linejoin="round"/>
<path d="M190.503 208.746H195.326C199.705 208.746 203.255 212.387 203.255 216.88V230.45C203.255 234.943 199.705 238.584 195.326 238.584H190.503C186.124 238.584 182.574 234.943 182.574 230.45V216.88C182.574 212.387 186.124 208.746 190.503 208.746Z" fill="#9AA4C1"/>
<path d="M272.631 571.326C273.365 573.204 278.366 584.72 278.366 584.72L262.205 591.038L257.382 574.58L272.631 571.326Z" fill="#E49D75"/>
<path d="M180.084 555.044L176.76 567.625L191.31 574.925L200.903 564.683L180.084 555.044Z" fill="#E49D75"/>
<path d="M200.936 313.975C202.594 315.94 216.33 332.846 217.315 334.181C218.299 335.517 258.518 348.057 260.639 348.64C262.76 349.223 270.384 352.625 272.532 352.625C274.679 352.625 281.571 350.287 284.425 350.768C287.279 351.249 296.391 356.72 295.512 358.902C294.633 361.085 196.264 353.798 196.264 353.798L185.541 319.56L200.936 313.975Z" fill="#D38D6A"/>
<path d="M181.643 471.92L206.639 604.019" stroke="#E0E0E0" stroke-width="2" stroke-linecap="round" stroke-linejoin="round"/>
<path d="M89.5306 256.364H32.9989L86.6103 471.92H190.219V457.888L132.207 418.37L89.5306 256.364Z" fill="#E0E0E0"/>
<path d="M206.618 459.556C203.751 465.568 179.528 549.974 178.901 554.881C181.986 558.203 195.366 565.591 201.081 566.073C210.761 558.257 237.884 492.628 237.884 492.628C237.884 492.628 228.647 438.177 206.618 459.556Z" fill="#9AA4C1"/>
<path d="M89.9729 379.15C87.8718 381.712 81.0729 419.529 80.062 429.31C78.5093 444.684 107.561 467.202 148.573 467.202C162.111 467.202 206.935 464.104 219.812 459.115C220.473 467.473 252.941 571.712 256.621 575.488C262.667 577.108 271.607 573.739 273.84 571.421C276.073 569.103 258.326 425.101 253.357 415.801C248.389 406.501 147.152 399.512 147.152 399.512L89.9729 379.15Z" fill="#818EB1"/>
<path d="M160.249 271.209C141.239 282.59 169.664 332.304 173.258 333.571C178.987 332.893 198.934 320.929 202.674 312.124C203.48 306.715 176.483 261.482 160.249 271.209Z" fill="#F9C80E"/>
<path d="M149.717 250.576C117.942 250.576 87.3441 375.021 88.5994 380.004C91.1697 390.219 143.222 408.9 151.573 400.875C172.697 380.593 211.653 250.576 149.717 250.576Z" fill="#F9C80E"/>
<path d="M92.584 471.92L67.5887 604.019" stroke="#E0E0E0" stroke-width="2" stroke-linecap="round" stroke-linejoin="round"/>
<path d="M260.983 591.539L269.275 613L314.039 592.536L309.592 583.344L276.9 584.341L260.983 591.539Z" fill="black"/>
<path d="M176.49 566.073L165.489 586.211L209.209 608.933L213.352 599.585L191.97 574.2L176.49 566.073Z" fill="black"/>
<path d="M157.242 236.869C156.522 240.991 151.957 253.416 149.974 255.693C147.992 257.971 158.663 271.284 170.53 268.843C170.886 264.661 172.294 252.819 174.157 250.853C176.02 248.888 157.242 236.869 157.242 236.869Z" fill="#D38D6A"/>
<path d="M167.722 250.845C154.833 246.53 149.016 228.473 154.728 210.513C160.441 192.553 175.521 181.491 188.41 185.806C201.299 190.121 207.116 208.178 201.403 226.138C195.691 244.098 180.611 255.16 167.722 250.845Z" fill="#E49D75"/>
<path d="M197.612 171.762C184.451 171.762 150.628 195.751 150.628 219.889C150.628 232.843 152.861 236.158 153.707 236.158C154.553 236.158 162.719 229.657 162.719 224.987C162.719 220.316 164.325 213.409 165.891 213.409C168.534 213.409 168.924 216.426 175.571 216.426C178.114 216.426 182.891 213.314 182.891 209.742C188.29 209.837 188.29 211.667 195.696 211.667C204.087 211.667 224.702 207.315 224.702 200.632C224.702 196.104 218.947 192.986 213.278 194.09C217.117 191.982 220.546 187.631 220.546 184.75C220.546 180.717 215.591 177.931 211.752 177.931C207.2 177.931 203.275 179.896 201.312 181.821C202.878 179.042 201.332 171.762 197.612 171.762Z" fill="#FD8369"/>
<path d="M166.942 227.197C163.173 227.197 160.117 224.062 160.117 220.194C160.117 216.327 163.173 213.192 166.942 213.192C170.712 213.192 173.768 216.327 173.768 220.194C173.768 224.062 170.712 227.197 166.942 227.197Z" fill="#E49D75"/>
<path d="M192.339 376.648H534.998V386.504H192.339V376.648Z" fill="#A4A4A4"/>
<path d="M221.814 360.638H363.672H364.029H505.886L534.998 376.56H364.029H363.672H192.696L221.814 360.638Z" fill="#E0E0E0"/>
<path d="M491.848 386.497V593.214" stroke="#A4A4A4" stroke-width="3" stroke-linecap="round" stroke-linejoin="round"/>
<path d="M464.691 386.497V555.986" stroke="#A4A4A4" stroke-width="3" stroke-linecap="round" stroke-linejoin="round"/>
<path d="M235.492 386.497V593.214" stroke="#A4A4A4" stroke-width="3" stroke-linecap="round" stroke-linejoin="round"/>
<path d="M272.16 361.742H332.914V366.013H272.16V361.742Z" fill="#A4A4A4"/>
<path d="M397.309 356.428H408.938V370.629H397.309V356.428Z" fill="#A4A4A4"/>
<path d="M287.893 374.703C280.369 374.703 274.269 371.777 274.269 368.168C274.269 364.56 280.369 361.634 287.893 361.634C295.418 361.634 301.518 364.56 301.518 368.168C301.518 371.777 295.418 374.703 287.893 374.703Z" fill="#F2F2F2"/>
<path d="M191.249 320.767C193.231 322.983 205.362 340.878 206.671 342.77C234.421 346.091 271.091 355.222 272.439 355.269C273.787 355.316 289.209 350.192 291.277 350.565C293.345 350.938 297.573 358.543 297.395 360.109C297.217 361.675 285.072 369.199 271.091 369.009C268.448 368.826 267.583 367.348 264.841 367.348C262.099 367.348 199.429 372.317 188.553 366.487C182.64 363.308 166.023 339.333 166.023 337.537C166.023 335.74 191.249 320.767 191.249 320.767Z" fill="#E49D75"/>
<path d="M151.692 277.012C132.69 288.393 161.107 338.106 164.702 339.373C170.437 338.696 190.378 326.732 194.124 317.926C194.93 312.517 167.933 267.284 151.692 277.012Z" fill="#F9C80E"/>
<path d="M413.227 180.195H418.797V364.142H413.227V180.195Z" fill="#E0E0E0"/>
<path d="M413.234 180.195V272.165V364.142L386.898 354.259V272.165V190.071L413.234 180.195Z" fill="#A4A4A4"/>
<path d="M165.052 208.746H169.875C174.254 208.746 177.804 212.387 177.804 216.88V230.45C177.804 234.943 174.254 238.584 169.875 238.584H165.052C160.673 238.584 157.123 234.943 157.123 230.45V216.88C157.123 212.387 160.673 208.746 165.052 208.746Z" fill="#9AA4C1"/>
<path d="M166.941 212.508C166.941 208.746 165.673 186.587 177.804 180.046" stroke="#9AA4C1" stroke-width="6" stroke-linecap="round" stroke-linejoin="round"/>
<path d="M167.463 238.584C167.463 240.747 168.296 253.009 177.374 253.009" stroke="#A4A4A4" stroke-width="6" stroke-linecap="round" stroke-linejoin="round"/>
</g>
<defs>
<clipPath id="clip0">
<rect width="502" height="502" fill="white" transform="translate(33 111)"/>
</clipPath>
</defs>
</svg>
