<svg width="181" height="531" viewBox="0 0 181 531" fill="none" xmlns="http://www.w3.org/2000/svg">
<path d="M174.324 372.61C174.324 384.335 165.619 393.839 154.882 393.839C144.144 393.839 135.439 384.335 135.439 372.61" stroke="#DD821F" stroke-width="13" stroke-linecap="round" stroke-linejoin="round"/>
<path d="M174.323 63.7115C160.877 63.7115 149.979 51.8316 149.979 37.177C149.979 22.5225 160.877 10.6426 174.323 10.6426" stroke="#DD821F" stroke-width="13" stroke-linecap="round" stroke-linejoin="round"/>
<path d="M174.323 176.073V114.469C174.323 102.406 165.238 92.6265 154.036 92.6265C142.833 92.6265 133.748 102.406 133.748 114.469V124.004" stroke="#DD821F" stroke-width="13" stroke-linecap="round" stroke-linejoin="round"/>
<path d="M76.6768 455.126C69.4592 484.338 85.0729 514.254 111.55 521.949C138.026 529.64 165.344 512.196 172.562 482.985C179.78 453.773 164.166 423.858 137.689 416.164" stroke="#DD821F" stroke-width="13" stroke-linecap="round" stroke-linejoin="round"/>
<path d="M127.658 325.397C127.658 337.727 136.744 347.722 147.949 347.722C159.155 347.722 168.237 337.727 168.237 325.397C168.237 313.067 159.155 303.071 147.949 303.071H79.9863" stroke="#DD821F" stroke-width="13" stroke-linecap="round" stroke-linejoin="round"/>
<path d="M1.71078 212.883C12.4486 212.883 21.153 222.258 21.153 233.822C21.153 245.387 12.4486 254.761 1.71078 254.761C-9.027 254.761 -17.7314 245.387 -17.7314 233.822V155.577" stroke="#DD821F" stroke-width="13" stroke-linecap="round" stroke-linejoin="round"/>
<path d="M140.053 273.061C158.983 273.061 174.324 256.183 174.324 235.364C174.324 214.544 158.983 197.667 140.053 197.667H50.2324" stroke="#DD821F" stroke-width="13" stroke-linecap="round" stroke-linejoin="round"/>
<path fill-rule="evenodd" clip-rule="evenodd" d="M7.62891 71.2162C7.62891 51.7104 22.0801 35.8979 39.9068 35.8979H73.0691C90.8971 35.8979 105.347 51.7104 105.347 71.2162C105.347 90.7221 90.8971 106.534 73.0691 106.534H39.9068C22.0801 106.534 7.62891 90.7221 7.62891 71.2162Z" stroke="#DD821F" stroke-width="13" stroke-linecap="round" stroke-linejoin="round"/>
<path d="M1.71083 179.732H20.7072C33.4643 179.732 43.8074 169.163 43.8074 156.126C43.8074 143.088 33.4643 132.519 20.7072 132.519H-17.2855C-30.0434 132.519 -40.3857 143.088 -40.3857 156.126" stroke="#DD821F" stroke-width="13" stroke-linecap="round" stroke-linejoin="round"/>
<path d="M123.436 448.678C134.174 448.678 142.878 458.033 142.878 469.569C142.878 481.105 134.174 490.46 123.436 490.46C112.699 490.46 103.994 481.105 103.994 469.569V333.449" stroke="#DD821F" stroke-width="13" stroke-linecap="round" stroke-linejoin="round"/>
<path d="M-22.127 462.279C-22.127 440.853 -6.28696 423.483 13.2526 423.483H75.5912" stroke="#DD821F" stroke-width="13" stroke-linecap="round" stroke-linejoin="round"/>
<path d="M79.9863 334.181V353.855C79.9863 373.713 65.1082 389.811 46.7528 389.811H20.8145" stroke="#DD821F" stroke-width="13" stroke-linecap="round" stroke-linejoin="round"/>
<path d="M142.878 236.096H114.473C93.9313 236.096 77.2812 254.284 77.2812 276.721" stroke="#DD821F" stroke-width="13" stroke-linecap="round" stroke-linejoin="round"/>
<path d="M1.37305 281.112C1.37305 283.927 1.37305 319.372 1.37305 336.743" stroke="#DD821F" stroke-width="13" stroke-linecap="round" stroke-linejoin="round"/>
<path d="M-44.1055 406.647H-35.0518C-16.3431 406.647 -1.17689 390.251 -1.17689 370.026M50.2314 221.821V273.913C50.2314 282.11 44.0453 288.749 36.414 288.749C28.7827 288.749 22.5966 295.393 22.5966 303.59V306.669C22.5966 314.865 28.7827 321.51 36.414 321.51C44.0453 321.51 50.2314 328.155 50.2314 336.351V339.759C50.2314 349.838 42.6247 358.009 33.2411 358.009H24.4389H11.5427L50.2314 221.821Z" stroke="#DD821F" stroke-width="13" stroke-linecap="round" stroke-linejoin="round"/>
<path d="M134.088 149.692V157.116C134.088 167.586 126.222 176.073 116.525 176.073C106.823 176.073 98.9574 167.586 98.9574 157.116V150.967C98.9574 140.577 91.1525 132.154 81.5286 132.154C71.9006 132.154 64.0957 140.577 64.0957 150.967V158.534" stroke="#DD821F" stroke-width="13" stroke-linecap="round" stroke-linejoin="round"/>
<path fill-rule="evenodd" clip-rule="evenodd" d="M1.54199 477.638C1.54199 462.891 12.5931 450.933 26.2251 450.933C39.8559 450.933 50.9083 462.891 50.9083 477.638V497.06C50.9083 511.808 39.8559 523.766 26.2251 523.766C12.5931 523.766 1.54199 511.808 1.54199 497.06V477.638Z" stroke="#DD821F" stroke-width="13" stroke-linecap="round" stroke-linejoin="round"/>
</svg>
