<svg width="38" height="39" viewBox="0 0 38 39" fill="none" xmlns="http://www.w3.org/2000/svg">
<rect y="0.959961" width="37.9997" height="38.0165" rx="2" fill="#475993"/>
<g clip-path="url(#clip0)">
<path d="M25.5742 10.9614H12.4255C11.086 10.9614 10 12.0479 10 13.3881V26.543C10 27.8833 11.0859 28.9697 12.4255 28.9697H18.9104L18.9214 22.5345H17.2504C17.0332 22.5345 16.8569 22.3588 16.8561 22.1416L16.8481 20.0672C16.8472 19.8488 17.024 19.6712 17.2424 19.6712H18.9104V17.6669C18.9104 15.3409 20.3303 14.0744 22.4043 14.0744H24.1061C24.3239 14.0744 24.5005 14.251 24.5005 14.4689V16.218C24.5005 16.4358 24.324 16.6123 24.1064 16.6125L23.062 16.613C21.9341 16.613 21.7157 17.1492 21.7157 17.9361V19.6713H24.194C24.4302 19.6713 24.6134 19.8776 24.5856 20.1122L24.3398 22.1865C24.3163 22.3851 24.1481 22.5346 23.9483 22.5346H21.7267L21.7157 28.9698H25.5743C26.9138 28.9698 27.9997 27.8834 27.9997 26.5432V13.3881C27.9997 12.0479 26.9138 10.9614 25.5742 10.9614Z" fill="white"/>
</g>
<defs>
<clipPath id="clip0">
<rect width="17.9999" height="18.0084" fill="white" transform="translate(10 10.9614)"/>
</clipPath>
</defs>
</svg>
