<svg width="220" height="220" viewBox="0 0 220 220" fill="none" xmlns="http://www.w3.org/2000/svg">
<path d="M110.011 207.683L153.594 196.677C178.471 176.02 194.316 144.862 194.316 110C194.316 56.2276 156.627 11.2578 106.225 0.0639648C47.2215 2.05385 0 50.5123 0 110C0 140.556 12.461 168.199 32.5755 188.133L110.011 207.683Z" fill="#DD821F"/>
<path d="M192.033 110C192.033 146.057 174.681 178.059 147.876 198.12L187.42 188.134C207.536 168.2 219.999 140.557 219.999 110C219.999 49.2486 170.75 0 109.999 0C105.262 0 100.595 0.299922 96.0156 0.880859C150.165 7.7507 192.033 53.9859 192.033 110Z" fill="#DD821F"/>
<path d="M182.637 159.996C179.947 157.34 176.621 155.286 172.844 154.09L132.344 143.429H110.007H87.0117L47.156 154.09C36.9965 157.307 30.0918 166.735 30.0918 177.392V185.596C49.3371 205.933 76.2622 218.926 106.225 219.937C139.796 212.481 167.726 190.041 182.637 159.996Z" fill="#4A80AA"/>
<path d="M189.909 185.596V177.391C189.909 169.856 186.454 162.939 180.84 158.394C164.894 190.889 133.393 214.368 96.043 219.116C100.551 219.687 105.143 219.991 109.804 220C114.283 219.993 118.702 219.733 123.049 219.234C149.273 216.135 172.671 203.811 189.909 185.596Z" fill="#407093"/>
<path d="M107.122 219.959C108.014 219.982 108.907 219.998 109.804 220C110.842 219.998 111.876 219.98 112.907 219.951L118.453 213.825C114.088 215.356 109.597 216.62 105 217.597L107.122 219.959Z" fill="#4A80AA"/>
<path d="M109.952 132.909L132.229 143.354C132.229 143.354 115.517 157.751 86.5547 143.354L109.952 132.909Z" fill="#DEA28A"/>
<path d="M92.2863 33.0886C92.2863 33.0886 76.4397 30.2162 74.9923 47.5378C73.7986 61.7432 79.9164 74.7996 79.9164 74.7996L84.0198 42.9245L92.2863 33.0886Z" fill="#62302F"/>
<path d="M126.172 29.5543C126.172 29.5543 142.183 30.1462 143.914 47.4329C145.137 59.6189 138.422 74.2595 138.422 74.2595L134.379 42.9241L126.172 29.5543Z" fill="#62302F"/>
<path d="M82.3649 73.7723C82.3649 73.7723 77.3512 69.2287 73.6805 74.6253C68.1148 82.8248 77.8585 97.6917 86.3339 90.0319L82.3649 73.7723Z" fill="#DEA28A"/>
<path d="M77.2891 79.3258C77.2891 79.3258 81.1239 79.3258 83.1234 85.1925" stroke="black" stroke-width="0.55" stroke-linecap="round" stroke-linejoin="round"/>
<path d="M135.828 73.7723C135.828 73.7723 140.841 69.2287 144.497 74.6253C150.078 82.8248 140.319 97.6917 131.844 90.0319L135.828 73.7723Z" fill="#DEA28A"/>
<path d="M140.9 79.3258C140.9 79.3258 136.946 79.3258 135.051 85.1925" stroke="black" stroke-width="0.55" stroke-linecap="round" stroke-linejoin="round"/>
<path d="M141.262 64.7607C144.852 44.0472 133.369 23.8606 115.615 19.6727C97.8604 15.4849 80.5578 28.8816 76.9682 49.5951C73.3787 70.3087 84.8614 90.4953 102.616 94.6832C120.37 98.871 137.673 85.4743 141.262 64.7607Z" fill="#62302F"/>
<path d="M99.524 108.433L97.0918 143.685H122.07L118.549 108.015L99.524 108.433Z" fill="#DEA28A"/>
<path d="M99.3125 111.044C100.148 111.532 120.009 122.064 120.009 122.064L118.621 108.015L99.3125 111.044Z" fill="black"/>
<path d="M82.304 55.5282C82.304 55.5282 79.1854 113.534 108.312 113.534C139.274 113.534 136.782 55.5282 136.782 55.5282C136.782 55.5282 136.618 30.1464 109.297 30.1464C84.2737 30.1464 82.304 55.5282 82.304 55.5282Z" fill="#DEA28A"/>
<path d="M99.6713 73.0061C99.6743 73.5578 99.5368 74.098 99.2762 74.5583C99.0157 75.0186 98.6439 75.3784 98.2079 75.5919C97.7719 75.8053 97.2915 75.863 96.8274 75.7575C96.3633 75.652 95.9364 75.3881 95.6011 74.9993C95.2657 74.6104 95.0368 74.1141 94.9435 73.5734C94.8501 73.0326 94.8965 72.4717 95.0768 71.9617C95.257 71.4517 95.563 71.0157 95.956 70.7088C96.3489 70.402 96.8111 70.2382 97.2839 70.2382C97.9145 70.2381 98.5195 70.5292 98.9668 71.0478C99.4141 71.5664 99.6674 72.2704 99.6713 73.0061Z" fill="#1E0B02"/>
<path d="M122.95 73.0061C122.95 73.5536 122.811 74.0887 122.55 74.5439C122.29 74.9991 121.919 75.3539 121.486 75.5634C121.052 75.7729 120.575 75.8277 120.115 75.7209C119.655 75.6141 119.232 75.3505 118.9 74.9634C118.568 74.5763 118.342 74.0831 118.251 73.5461C118.159 73.0092 118.206 72.4527 118.386 71.9469C118.565 71.4411 118.869 71.0088 119.259 70.7047C119.65 70.4005 120.108 70.2382 120.578 70.2382C121.206 70.2427 121.807 70.5358 122.251 71.0539C122.695 71.572 122.946 72.2734 122.95 73.0061Z" fill="#1E0B02"/>
<path d="M107.773 80.5442V84.67H110.534" stroke="black" stroke-width="0.55" stroke-linecap="round" stroke-linejoin="round"/>
<path d="M102.299 89.9623C102.299 89.9623 105.552 94.2622 113.848 91.5291" stroke="black" stroke-width="0.55" stroke-linecap="round" stroke-linejoin="round"/>
<path d="M88.6002 61.9171L101.686 60.5418C102.058 60.4989 102.409 60.3238 102.692 60.0402C102.976 59.7566 103.177 59.3783 103.27 58.9565C103.363 58.5347 103.342 58.0898 103.211 57.6821C103.08 57.2743 102.845 56.9235 102.537 56.6771C100.228 55.0529 97.4979 54.4419 94.8374 54.9536C92.1499 55.1991 89.5705 56.2945 87.3766 58.122C87.0707 58.4004 86.8489 58.7856 86.7438 59.2214C86.6387 59.6572 86.6557 60.1207 86.7923 60.5444C86.9289 60.9681 87.178 61.3299 87.5033 61.5768C87.8285 61.8237 88.2128 61.9429 88.6002 61.9171Z" fill="#62302F"/>
<path d="M126.963 61.9171L113.877 60.5418C113.506 60.4989 113.155 60.3238 112.871 60.0402C112.588 59.7566 112.386 59.3783 112.294 58.9565C112.201 58.5347 112.221 58.0898 112.352 57.6821C112.484 57.2744 112.719 56.9235 113.027 56.6771C115.326 55.0552 118.044 54.4383 120.696 54.9363C123.385 55.1748 125.966 56.2708 128.157 58.1046C128.467 58.3792 128.693 58.7623 128.803 59.1978C128.912 59.6334 128.9 60.0984 128.766 60.5248C128.633 60.9511 128.386 61.3164 128.061 61.5669C127.737 61.8175 127.352 61.9402 126.963 61.9171Z" fill="#62302F"/>
<path opacity="0.23" d="M93.6598 61.9171L105.955 81.3973C105.955 81.3973 102.299 89.5968 96.3307 88.6741L83.916 69.6639C83.916 69.6639 87.2734 61.3078 93.6598 61.9171Z" fill="white"/>
<path opacity="0.23" d="M121.952 61.9171L134.262 81.3974C134.262 81.3974 130.546 89.6838 124.637 88.7612L112.223 69.751C112.223 69.751 115.58 61.3078 121.952 61.9171Z" fill="white"/>
<path d="M106.939 75.3738C106.939 78.1531 106.232 80.87 104.908 83.1807C103.585 85.4914 101.703 87.292 99.5018 88.3548C97.3006 89.4176 94.8787 89.6948 92.5424 89.1513C90.2062 88.6078 88.0606 87.2681 86.3771 85.3016C84.6937 83.3351 83.548 80.8302 83.085 78.1039C82.6221 75.3776 82.8627 72.5523 83.7764 69.9855C84.6901 67.4188 86.2358 65.2258 88.218 63.6842C90.2002 62.1426 92.5298 61.3216 94.912 61.3251C96.4927 61.3251 98.0578 61.6886 99.5179 62.3948C100.978 63.101 102.305 64.1361 103.421 65.4409C104.538 66.7457 105.424 68.2945 106.028 69.9989C106.631 71.7033 106.941 73.5297 106.939 75.3738Z" stroke="white" stroke-width="0.58" stroke-miterlimit="10"/>
<path d="M135.275 75.374C135.275 78.1504 134.57 80.8645 133.248 83.1736C131.927 85.4828 130.049 87.2835 127.851 88.3483C125.654 89.4131 123.235 89.6944 120.9 89.1565C118.566 88.6187 116.42 87.2858 114.734 85.3263C113.048 83.3668 111.898 80.8684 111.428 78.1467C110.959 75.4249 111.191 72.6019 112.095 70.0339C113 67.4659 114.536 65.2682 116.511 63.7183C118.485 62.1683 120.809 61.3356 123.188 61.3253C124.774 61.3161 126.345 61.6729 127.813 62.375C129.28 63.0771 130.613 64.1107 131.736 65.4164C132.86 66.7221 133.751 68.2741 134.358 69.983C134.965 71.6919 135.277 73.5241 135.275 75.374Z" stroke="white" stroke-width="0.58" stroke-miterlimit="10"/>
<path d="M106.939 75.3737C107.601 74.9822 108.332 74.7782 109.073 74.7782C109.815 74.7782 110.546 74.9822 111.207 75.3737" stroke="white" stroke-width="0.58" stroke-miterlimit="10"/>
<path d="M132.142 28.2662C132.142 28.2662 123.19 42.019 138.23 56.12C138.245 56.1374 141.782 39.1292 132.142 28.2662Z" fill="#62302F"/>
<path d="M87.4959 28.2662C87.4959 28.2662 96.4489 42.019 81.408 56.12C81.408 56.1374 77.8716 39.1292 87.4959 28.2662Z" fill="#62302F"/>
<path d="M80.989 33.28C80.989 33.28 79.6759 16.1325 97.2534 16.1325C114.831 16.1325 129.26 21.7032 134.184 9.88281C134.184 9.88281 151.777 36.9706 121.531 43.9514C95.3435 49.9922 81.9141 43.6032 80.989 33.28Z" fill="#62302F"/>
</svg>
