<svg width="481" height="618" viewBox="0 0 481 618" fill="none" xmlns="http://www.w3.org/2000/svg">
<circle cx="61.3242" cy="5" r="5" fill="#495678" fill-opacity="0.2"/>
<circle cx="108.324" cy="5" r="5" fill="#495678" fill-opacity="0.2"/>
<circle cx="155.324" cy="5" r="5" fill="#495678" fill-opacity="0.2"/>
<circle cx="202.324" cy="5" r="5" fill="#495678" fill-opacity="0.2"/>
<circle cx="249.324" cy="5" r="5" fill="#495678" fill-opacity="0.2"/>
<circle cx="296.324" cy="5" r="5" fill="#495678" fill-opacity="0.2"/>
<circle cx="343.324" cy="5" r="5" fill="#495678" fill-opacity="0.2"/>
<circle cx="390.324" cy="5" r="5" fill="#495678" fill-opacity="0.2"/>
<circle cx="61.3242" cy="37" r="5" fill="#495678" fill-opacity="0.2"/>
<circle cx="108.324" cy="37" r="5" fill="#495678" fill-opacity="0.2"/>
<circle cx="155.324" cy="37" r="5" fill="#495678" fill-opacity="0.2"/>
<circle cx="202.324" cy="37" r="5" fill="#495678" fill-opacity="0.2"/>
<circle cx="249.324" cy="37" r="5" fill="#495678" fill-opacity="0.2"/>
<circle cx="296.324" cy="37" r="5" fill="#495678" fill-opacity="0.2"/>
<circle cx="343.324" cy="37" r="5" fill="#495678" fill-opacity="0.2"/>
<circle cx="390.324" cy="37" r="5" fill="#495678" fill-opacity="0.2"/>
<circle cx="61.3242" cy="69" r="5" fill="#495678" fill-opacity="0.2"/>
<circle cx="108.324" cy="69" r="5" fill="#495678" fill-opacity="0.2"/>
<circle cx="155.324" cy="69" r="5" fill="#495678" fill-opacity="0.2"/>
<circle cx="202.324" cy="69" r="5" fill="#495678" fill-opacity="0.2"/>
<circle cx="249.324" cy="69" r="5" fill="#495678" fill-opacity="0.2"/>
<circle cx="296.324" cy="69" r="5" fill="#495678" fill-opacity="0.2"/>
<circle cx="343.324" cy="69" r="5" fill="#495678" fill-opacity="0.2"/>
<circle cx="390.324" cy="69" r="5" fill="#495678" fill-opacity="0.2"/>
<circle cx="61.3242" cy="101" r="5" fill="#495678" fill-opacity="0.2"/>
<circle cx="108.324" cy="101" r="5" fill="#495678" fill-opacity="0.2"/>
<circle cx="155.324" cy="101" r="5" fill="#495678" fill-opacity="0.2"/>
<circle cx="202.324" cy="101" r="5" fill="#495678" fill-opacity="0.2"/>
<circle cx="249.324" cy="101" r="5" fill="#495678" fill-opacity="0.2"/>
<circle cx="296.324" cy="101" r="5" fill="#495678" fill-opacity="0.2"/>
<circle cx="343.324" cy="101" r="5" fill="#495678" fill-opacity="0.2"/>
<circle cx="390.324" cy="101" r="5" fill="#495678" fill-opacity="0.2"/>
<circle cx="61.3242" cy="133" r="5" fill="#495678" fill-opacity="0.2"/>
<circle cx="108.324" cy="133" r="5" fill="#495678" fill-opacity="0.2"/>
<circle cx="155.324" cy="133" r="5" fill="#495678" fill-opacity="0.2"/>
<circle cx="202.324" cy="133" r="5" fill="#495678" fill-opacity="0.2"/>
<circle cx="249.324" cy="133" r="5" fill="#495678" fill-opacity="0.2"/>
<circle cx="296.324" cy="133" r="5" fill="#495678" fill-opacity="0.2"/>
<circle cx="343.324" cy="133" r="5" fill="#495678" fill-opacity="0.2"/>
<circle cx="390.324" cy="133" r="5" fill="#495678" fill-opacity="0.2"/>
<circle cx="61.3242" cy="165" r="5" fill="#495678" fill-opacity="0.2"/>
<circle cx="108.324" cy="165" r="5" fill="#495678" fill-opacity="0.2"/>
<circle cx="155.324" cy="165" r="5" fill="#495678" fill-opacity="0.2"/>
<circle cx="202.324" cy="165" r="5" fill="#495678" fill-opacity="0.2"/>
<circle cx="249.324" cy="165" r="5" fill="#495678" fill-opacity="0.2"/>
<circle cx="296.324" cy="165" r="5" fill="#495678" fill-opacity="0.2"/>
<circle cx="343.324" cy="165" r="5" fill="#495678" fill-opacity="0.2"/>
<circle cx="390.324" cy="165" r="5" fill="#495678" fill-opacity="0.2"/>
<circle cx="61.3242" cy="197" r="5" fill="#495678" fill-opacity="0.2"/>
<circle cx="108.324" cy="197" r="5" fill="#495678" fill-opacity="0.2"/>
<circle cx="155.324" cy="197" r="5" fill="#495678" fill-opacity="0.2"/>
<circle cx="202.324" cy="197" r="5" fill="#495678" fill-opacity="0.2"/>
<circle cx="249.324" cy="197" r="5" fill="#495678" fill-opacity="0.2"/>
<circle cx="296.324" cy="197" r="5" fill="#495678" fill-opacity="0.2"/>
<circle cx="343.324" cy="197" r="5" fill="#495678" fill-opacity="0.2"/>
<circle cx="390.324" cy="197" r="5" fill="#495678" fill-opacity="0.2"/>
<circle cx="61.3242" cy="229" r="5" fill="#495678" fill-opacity="0.2"/>
<circle cx="108.324" cy="229" r="5" fill="#495678" fill-opacity="0.2"/>
<circle cx="155.324" cy="229" r="5" fill="#495678" fill-opacity="0.2"/>
<circle cx="202.324" cy="229" r="5" fill="#495678" fill-opacity="0.2"/>
<circle cx="249.324" cy="229" r="5" fill="#495678" fill-opacity="0.2"/>
<circle cx="296.324" cy="229" r="5" fill="#495678" fill-opacity="0.2"/>
<circle cx="343.324" cy="229" r="5" fill="#495678" fill-opacity="0.2"/>
<circle cx="390.324" cy="229" r="5" fill="#495678" fill-opacity="0.2"/>
<circle cx="61.3242" cy="261" r="5" fill="#495678" fill-opacity="0.2"/>
<circle cx="108.324" cy="261" r="5" fill="#495678" fill-opacity="0.2"/>
<circle cx="155.324" cy="261" r="5" fill="#495678" fill-opacity="0.2"/>
<circle cx="202.324" cy="261" r="5" fill="#495678" fill-opacity="0.2"/>
<circle cx="249.324" cy="261" r="5" fill="#495678" fill-opacity="0.2"/>
<circle cx="296.324" cy="261" r="5" fill="#495678" fill-opacity="0.2"/>
<circle cx="343.324" cy="261" r="5" fill="#495678" fill-opacity="0.2"/>
<circle cx="390.324" cy="261" r="5" fill="#495678" fill-opacity="0.2"/>
<circle cx="61.3242" cy="293" r="5" fill="#495678" fill-opacity="0.2"/>
<circle cx="108.324" cy="293" r="5" fill="#495678" fill-opacity="0.2"/>
<circle cx="155.324" cy="293" r="5" fill="#495678" fill-opacity="0.2"/>
<circle cx="202.324" cy="293" r="5" fill="#495678" fill-opacity="0.2"/>
<circle cx="249.324" cy="293" r="5" fill="#495678" fill-opacity="0.2"/>
<circle cx="296.324" cy="293" r="5" fill="#495678" fill-opacity="0.2"/>
<circle cx="343.324" cy="293" r="5" fill="#495678" fill-opacity="0.2"/>
<circle cx="390.324" cy="293" r="5" fill="#495678" fill-opacity="0.2"/>
<circle cx="61.3242" cy="325" r="5" fill="#495678" fill-opacity="0.2"/>
<circle cx="108.324" cy="325" r="5" fill="#495678" fill-opacity="0.2"/>
<circle cx="155.324" cy="325" r="5" fill="#495678" fill-opacity="0.2"/>
<circle cx="202.324" cy="325" r="5" fill="#495678" fill-opacity="0.2"/>
<circle cx="249.324" cy="325" r="5" fill="#495678" fill-opacity="0.2"/>
<circle cx="296.324" cy="325" r="5" fill="#495678" fill-opacity="0.2"/>
<circle cx="343.324" cy="325" r="5" fill="#495678" fill-opacity="0.2"/>
<circle cx="390.324" cy="325" r="5" fill="#495678" fill-opacity="0.2"/>
<circle cx="61.3242" cy="357" r="5" fill="#495678" fill-opacity="0.2"/>
<circle cx="108.324" cy="357" r="5" fill="#495678" fill-opacity="0.2"/>
<circle cx="155.324" cy="357" r="5" fill="#495678" fill-opacity="0.2"/>
<circle cx="202.324" cy="357" r="5" fill="#495678" fill-opacity="0.2"/>
<circle cx="249.324" cy="357" r="5" fill="#495678" fill-opacity="0.2"/>
<circle cx="296.324" cy="357" r="5" fill="#495678" fill-opacity="0.2"/>
<circle cx="343.324" cy="357" r="5" fill="#495678" fill-opacity="0.2"/>
<circle cx="390.324" cy="357" r="5" fill="#495678" fill-opacity="0.2"/>
<circle cx="61.3242" cy="389" r="5" fill="#495678" fill-opacity="0.2"/>
<circle cx="108.324" cy="389" r="5" fill="#495678" fill-opacity="0.2"/>
<circle cx="155.324" cy="389" r="5" fill="#495678" fill-opacity="0.2"/>
<circle cx="202.324" cy="389" r="5" fill="#495678" fill-opacity="0.2"/>
<circle cx="249.324" cy="389" r="5" fill="#495678" fill-opacity="0.2"/>
<circle cx="296.324" cy="389" r="5" fill="#495678" fill-opacity="0.2"/>
<circle cx="343.324" cy="389" r="5" fill="#495678" fill-opacity="0.2"/>
<circle cx="390.324" cy="389" r="5" fill="#495678" fill-opacity="0.2"/>
<circle cx="61.3242" cy="421" r="5" fill="#495678" fill-opacity="0.2"/>
<circle cx="108.324" cy="421" r="5" fill="#495678" fill-opacity="0.2"/>
<circle cx="155.324" cy="421" r="5" fill="#495678" fill-opacity="0.2"/>
<circle cx="202.324" cy="421" r="5" fill="#495678" fill-opacity="0.2"/>
<circle cx="249.324" cy="421" r="5" fill="#495678" fill-opacity="0.2"/>
<circle cx="296.324" cy="421" r="5" fill="#495678" fill-opacity="0.2"/>
<circle cx="343.324" cy="421" r="5" fill="#495678" fill-opacity="0.2"/>
<circle cx="390.324" cy="421" r="5" fill="#495678" fill-opacity="0.2"/>
<circle cx="61.3242" cy="453" r="5" fill="#495678" fill-opacity="0.2"/>
<circle cx="108.324" cy="453" r="5" fill="#495678" fill-opacity="0.2"/>
<circle cx="155.324" cy="453" r="5" fill="#495678" fill-opacity="0.2"/>
<circle cx="202.324" cy="453" r="5" fill="#495678" fill-opacity="0.2"/>
<circle cx="249.324" cy="453" r="5" fill="#495678" fill-opacity="0.2"/>
<circle cx="296.324" cy="453" r="5" fill="#495678" fill-opacity="0.2"/>
<circle cx="343.324" cy="453" r="5" fill="#495678" fill-opacity="0.2"/>
<circle cx="390.324" cy="453" r="5" fill="#495678" fill-opacity="0.2"/>
<circle cx="61.3242" cy="485" r="5" fill="#495678" fill-opacity="0.2"/>
<circle cx="108.324" cy="485" r="5" fill="#495678" fill-opacity="0.2"/>
<circle cx="155.324" cy="485" r="5" fill="#495678" fill-opacity="0.2"/>
<circle cx="202.324" cy="485" r="5" fill="#495678" fill-opacity="0.2"/>
<circle cx="249.324" cy="485" r="5" fill="#495678" fill-opacity="0.2"/>
<circle cx="296.324" cy="485" r="5" fill="#495678" fill-opacity="0.2"/>
<circle cx="343.324" cy="485" r="5" fill="#495678" fill-opacity="0.2"/>
<circle cx="390.324" cy="485" r="5" fill="#495678" fill-opacity="0.2"/>
<circle cx="61.3242" cy="517" r="5" fill="#495678" fill-opacity="0.2"/>
<circle cx="108.324" cy="517" r="5" fill="#495678" fill-opacity="0.2"/>
<circle cx="155.324" cy="517" r="5" fill="#495678" fill-opacity="0.2"/>
<circle cx="202.324" cy="517" r="5" fill="#495678" fill-opacity="0.2"/>
<circle cx="249.324" cy="517" r="5" fill="#495678" fill-opacity="0.2"/>
<circle cx="296.324" cy="517" r="5" fill="#495678" fill-opacity="0.2"/>
<circle cx="343.324" cy="517" r="5" fill="#495678" fill-opacity="0.2"/>
<circle cx="390.324" cy="517" r="5" fill="#495678" fill-opacity="0.2"/>
<circle cx="61.3242" cy="549" r="5" fill="#495678" fill-opacity="0.2"/>
<circle cx="108.324" cy="549" r="5" fill="#495678" fill-opacity="0.2"/>
<circle cx="155.324" cy="549" r="5" fill="#495678" fill-opacity="0.2"/>
<circle cx="202.324" cy="549" r="5" fill="#495678" fill-opacity="0.2"/>
<circle cx="249.324" cy="549" r="5" fill="#495678" fill-opacity="0.2"/>
<circle cx="296.324" cy="549" r="5" fill="#495678" fill-opacity="0.2"/>
<circle cx="343.324" cy="549" r="5" fill="#495678" fill-opacity="0.2"/>
<circle cx="390.324" cy="549" r="5" fill="#495678" fill-opacity="0.2"/>
<circle cx="61.3242" cy="581" r="5" fill="#495678" fill-opacity="0.2"/>
<circle cx="108.324" cy="581" r="5" fill="#495678" fill-opacity="0.2"/>
<circle cx="155.324" cy="581" r="5" fill="#495678" fill-opacity="0.2"/>
<circle cx="202.324" cy="581" r="5" fill="#495678" fill-opacity="0.2"/>
<circle cx="249.324" cy="581" r="5" fill="#495678" fill-opacity="0.2"/>
<circle cx="296.324" cy="581" r="5" fill="#495678" fill-opacity="0.2"/>
<circle cx="343.324" cy="581" r="5" fill="#495678" fill-opacity="0.2"/>
<circle cx="390.324" cy="581" r="5" fill="#495678" fill-opacity="0.2"/>
<circle cx="61.3242" cy="613" r="5" fill="#495678" fill-opacity="0.2"/>
<circle cx="108.324" cy="613" r="5" fill="#495678" fill-opacity="0.2"/>
<circle cx="155.324" cy="613" r="5" fill="#495678" fill-opacity="0.2"/>
<circle cx="202.324" cy="613" r="5" fill="#495678" fill-opacity="0.2"/>
<circle cx="249.324" cy="613" r="5" fill="#495678" fill-opacity="0.2"/>
<circle cx="296.324" cy="613" r="5" fill="#495678" fill-opacity="0.2"/>
<circle cx="343.324" cy="613" r="5" fill="#495678" fill-opacity="0.2"/>
<circle cx="390.324" cy="613" r="5" fill="#495678" fill-opacity="0.2"/>
<path d="M240.344 505.126L335.433 481.113C389.71 436.043 424.281 368.063 424.281 292.001C424.281 174.678 342.052 76.5625 232.083 52.1396C103.349 56.4812 0.320312 162.209 0.320312 292C0.320312 358.668 27.5078 418.981 71.3941 462.471L240.344 505.126Z" fill="#DD821F"/>
<path d="M419.301 292C419.301 370.67 381.444 440.492 322.959 484.262L409.238 462.473C453.127 418.983 480.32 358.669 480.32 292C480.32 159.452 372.868 52 240.32 52C229.985 52 219.801 52.6544 209.811 53.9219C327.953 68.9106 419.301 169.788 419.301 292Z" fill="#DD821F"/>
<path d="M398.801 401.083C392.933 395.287 385.675 390.805 377.436 388.197L289.071 364.937H240.337H190.165L103.208 388.197C81.0413 395.215 65.9766 415.786 65.9766 439.037V456.937C107.966 501.307 166.712 529.657 232.086 531.862C305.331 515.594 366.269 466.635 398.801 401.083Z" fill="#4A80AA"/>
<path d="M414.665 456.936V439.036C414.665 422.596 407.128 407.503 394.879 397.586C360.088 468.485 291.358 519.712 209.867 530.071C219.703 531.317 229.722 531.981 239.892 531.999C249.663 531.984 259.305 531.418 268.789 530.328C326.006 523.567 377.056 496.678 414.665 456.936Z" fill="#407093"/>
<path d="M234.04 531.911C235.986 531.962 237.935 531.996 239.891 532C242.155 531.996 244.412 531.957 246.662 531.894L258.762 518.526C249.238 521.867 239.44 524.626 229.41 526.757L234.04 531.911Z" fill="#4A80AA"/>
<path d="M240.216 341.984L288.822 364.773C288.822 364.773 252.359 396.185 189.168 364.773L240.216 341.984Z" fill="#DEA28A"/>
<path d="M201.671 124.193C201.671 124.193 167.096 117.926 163.939 155.719C161.334 186.712 174.682 215.199 174.682 215.199L183.635 145.653L201.671 124.193Z" fill="#62302F"/>
<path d="M275.604 116.482C275.604 116.482 310.536 117.773 314.313 155.49C316.982 182.078 302.332 214.021 302.332 214.021L293.509 145.652L275.604 116.482Z" fill="#62302F"/>
<path d="M180.024 212.958C180.024 212.958 169.085 203.044 161.076 214.819C148.933 232.709 170.192 265.146 188.684 248.433L180.024 212.958Z" fill="#DEA28A"/>
<path d="M168.951 225.075C168.951 225.075 177.318 225.075 181.681 237.875" stroke="black" stroke-width="0.55" stroke-linecap="round" stroke-linejoin="round"/>
<path d="M296.671 212.958C296.671 212.958 307.61 203.044 315.586 214.819C327.762 232.709 306.47 265.146 287.979 248.433L296.671 212.958Z" fill="#DEA28A"/>
<path d="M307.738 225.075C307.738 225.075 299.111 225.075 294.977 237.875" stroke="black" stroke-width="0.55" stroke-linecap="round" stroke-linejoin="round"/>
<path d="M308.528 193.296C316.36 148.103 291.307 104.06 252.57 94.9224C213.834 85.7852 176.083 115.014 168.251 160.208C160.419 205.401 185.472 249.444 224.209 258.581C262.946 267.719 300.697 238.489 308.528 193.296Z" fill="#62302F"/>
<path d="M217.463 288.581L212.156 365.495H266.655L258.972 287.669L217.463 288.581Z" fill="#DEA28A"/>
<path d="M217.004 294.278C218.827 295.342 262.159 318.321 262.159 318.321L259.131 287.669L217.004 294.278Z" fill="black"/>
<path d="M179.891 173.152C179.891 173.152 173.087 299.71 236.636 299.71C304.19 299.71 298.753 173.152 298.753 173.152C298.753 173.152 298.395 117.774 238.785 117.774C184.189 117.774 179.891 173.152 179.891 173.152Z" fill="#DEA28A"/>
<path d="M217.785 211.286C217.791 212.49 217.491 213.668 216.923 214.673C216.355 215.677 215.543 216.462 214.592 216.928C213.641 217.394 212.593 217.519 211.58 217.289C210.567 217.059 209.636 216.483 208.904 215.635C208.173 214.786 207.673 213.704 207.47 212.524C207.266 211.344 207.367 210.12 207.761 209.007C208.154 207.895 208.821 206.943 209.679 206.274C210.536 205.604 211.544 205.247 212.576 205.247C213.952 205.247 215.272 205.882 216.248 207.013C217.224 208.145 217.776 209.681 217.785 211.286Z" fill="#1E0B02"/>
<path d="M268.573 211.286C268.573 212.481 268.27 213.648 267.701 214.641C267.132 215.634 266.324 216.409 265.378 216.866C264.432 217.323 263.391 217.442 262.387 217.209C261.383 216.976 260.461 216.401 259.737 215.557C259.013 214.712 258.52 213.636 258.32 212.464C258.12 211.293 258.223 210.079 258.615 208.975C259.007 207.872 259.67 206.928 260.521 206.265C261.372 205.601 262.373 205.247 263.397 205.247C264.767 205.257 266.079 205.896 267.048 207.027C268.017 208.157 268.565 209.688 268.573 211.286Z" fill="#1E0B02"/>
<path d="M235.463 227.733V236.735H241.486" stroke="black" stroke-width="0.55" stroke-linecap="round" stroke-linejoin="round"/>
<path d="M223.516 248.281C223.516 248.281 230.613 257.663 248.714 251.7" stroke="black" stroke-width="0.55" stroke-linecap="round" stroke-linejoin="round"/>
<path d="M193.628 187.092L222.18 184.091C222.99 183.998 223.757 183.615 224.375 182.997C224.993 182.378 225.433 181.553 225.635 180.632C225.838 179.712 225.793 178.741 225.507 177.852C225.221 176.962 224.707 176.197 224.036 175.659C218.997 172.116 213.041 170.782 207.237 171.899C201.373 172.434 195.745 174.824 190.959 178.812C190.291 179.419 189.808 180.26 189.578 181.21C189.349 182.161 189.386 183.172 189.684 184.097C189.982 185.021 190.526 185.811 191.235 186.349C191.945 186.888 192.783 187.148 193.628 187.092Z" fill="#62302F"/>
<path d="M277.331 187.092L248.779 184.091C247.969 183.998 247.203 183.615 246.585 182.997C245.967 182.378 245.527 181.553 245.324 180.632C245.121 179.712 245.166 178.741 245.452 177.852C245.739 176.962 246.252 176.197 246.924 175.659C251.94 172.12 257.87 170.774 263.657 171.861C269.524 172.381 275.155 174.773 279.935 178.774C280.611 179.373 281.105 180.209 281.344 181.159C281.583 182.109 281.555 183.124 281.264 184.054C280.973 184.984 280.434 185.781 279.726 186.328C279.018 186.875 278.179 187.142 277.331 187.092Z" fill="#62302F"/>
<path opacity="0.23" d="M204.667 187.092L231.493 229.594C231.493 229.594 223.517 247.484 210.495 245.471L183.408 203.994C183.408 203.994 190.733 185.762 204.667 187.092Z" fill="white"/>
<path opacity="0.23" d="M266.394 187.092L293.253 229.594C293.253 229.594 285.147 247.674 272.255 245.661L245.168 204.184C245.168 204.184 252.493 185.763 266.394 187.092Z" fill="white"/>
<path d="M233.643 216.452C233.643 222.516 232.101 228.444 229.213 233.485C226.325 238.527 222.219 242.455 217.417 244.774C212.614 247.093 207.33 247.698 202.233 246.512C197.136 245.326 192.454 242.403 188.781 238.113C185.108 233.822 182.609 228.357 181.599 222.409C180.588 216.46 181.113 210.296 183.107 204.696C185.1 199.096 188.473 194.311 192.798 190.948C197.122 187.584 202.205 185.793 207.403 185.8C210.851 185.8 214.266 186.593 217.452 188.134C220.638 189.675 223.532 191.933 225.969 194.78C228.406 197.627 230.338 201.006 231.655 204.725C232.972 208.444 233.647 212.429 233.643 216.452Z" stroke="white" stroke-width="0.58" stroke-miterlimit="10"/>
<path d="M295.463 216.452C295.463 222.51 293.925 228.432 291.042 233.47C288.16 238.508 284.062 242.437 279.267 244.76C274.472 247.083 269.195 247.697 264.101 246.523C259.007 245.35 254.326 242.442 250.648 238.166C246.969 233.891 244.46 228.44 243.435 222.502C242.41 216.563 242.916 210.404 244.89 204.801C246.863 199.198 250.216 194.403 254.523 191.022C258.831 187.64 263.901 185.823 269.093 185.801C272.553 185.781 275.981 186.559 279.182 188.091C282.383 189.623 285.292 191.878 287.743 194.727C290.194 197.575 292.138 200.962 293.463 204.69C294.788 208.419 295.468 212.416 295.463 216.452Z" stroke="white" stroke-width="0.58" stroke-miterlimit="10"/>
<path d="M233.641 216.452C235.083 215.598 236.678 215.152 238.296 215.152C239.914 215.152 241.509 215.598 242.952 216.452" stroke="white" stroke-width="0.58" stroke-miterlimit="10"/>
<path d="M288.629 113.672C288.629 113.672 269.095 143.678 301.912 174.444C301.944 174.482 309.66 137.373 288.629 113.672Z" fill="#62302F"/>
<path d="M191.222 113.672C191.222 113.672 210.756 143.678 177.939 174.444C177.939 174.482 170.223 137.373 191.222 113.672Z" fill="#62302F"/>
<path d="M177.025 124.611C177.025 124.611 174.16 87.1982 212.511 87.1982C250.862 87.1982 282.343 99.3525 293.087 73.5625C293.087 73.5625 331.47 132.663 265.479 147.894C208.344 161.074 179.043 147.134 177.025 124.611Z" fill="#62302F"/>
</svg>
