<svg width="38" height="39" viewBox="0 0 38 39" fill="none" xmlns="http://www.w3.org/2000/svg">
<rect y="0.959961" width="37.9997" height="38.0165" rx="2" fill="url(#paint0_linear)"/>
<g clip-path="url(#clip0)">
<path d="M19.0032 15.3408C16.451 15.3408 14.3848 17.4103 14.3848 19.9615C14.3848 22.5149 16.4533 24.5821 19.0032 24.5821C21.5555 24.5821 23.6217 22.5127 23.6217 19.9615C23.6217 17.408 21.5532 15.3408 19.0032 15.3408ZM19.0032 22.9606C17.3465 22.9606 16.0055 21.6182 16.0055 19.9615C16.0055 18.3047 17.3472 16.9623 19.0032 16.9623C20.6592 16.9623 22.001 18.3047 22.001 19.9615C22.0017 21.6182 20.66 22.9606 19.0032 22.9606Z" fill="white"/>
<path d="M22.7111 11.0185C21.0551 10.9412 16.9534 10.9449 15.2959 11.0185C13.8394 11.0868 12.5547 11.4387 11.5189 12.4749C9.78792 14.2067 10.0092 16.5403 10.0092 19.9626C10.0092 23.4653 9.81417 25.7448 11.5189 27.4504C13.2566 29.1882 15.6229 28.9608 19.0031 28.9608C22.4711 28.9608 23.6681 28.9631 24.8943 28.4881C26.5616 27.8406 27.8201 26.3496 27.9431 23.6716C28.021 22.0141 28.0166 17.9112 27.9431 16.2529C27.7946 13.0917 26.0988 11.1746 22.7111 11.0185ZM25.3323 26.3046C24.1976 27.4399 22.6233 27.3386 18.9814 27.3386C15.2314 27.3386 13.7276 27.3941 12.6304 26.2933C11.3667 25.035 11.5954 23.0143 11.5954 19.9506C11.5954 15.805 11.1702 12.8193 15.3289 12.6062C16.2844 12.5725 16.5656 12.5612 18.9709 12.5612L19.0046 12.5837C23.0013 12.5837 26.1371 12.165 26.3253 16.3249C26.3681 17.2741 26.3778 17.5593 26.3778 19.9619C26.3771 23.6701 26.4476 25.1836 25.3323 26.3046Z" fill="white"/>
<path d="M23.8039 16.2366C24.3999 16.2366 24.8831 15.7534 24.8831 15.1574C24.8831 14.5613 24.3999 14.0781 23.8039 14.0781C23.2078 14.0781 22.7246 14.5613 22.7246 15.1574C22.7246 15.7534 23.2078 16.2366 23.8039 16.2366Z" fill="white"/>
</g>
<defs>
<linearGradient id="paint0_linear" x1="18.9999" y1="0.959961" x2="18.9999" y2="38.9765" gradientUnits="userSpaceOnUse">
<stop stop-color="#FFDD55"/>
<stop offset="0.515625" stop-color="#FF543E"/>
<stop offset="1" stop-color="#C837AB"/>
</linearGradient>
<clipPath id="clip0">
<rect width="17.9999" height="18.0084" fill="white" transform="translate(10 10.9614)"/>
</clipPath>
</defs>
</svg>
