<svg width="38" height="39" viewBox="0 0 38 39" fill="none" xmlns="http://www.w3.org/2000/svg">
<rect x="-0.000976562" y="0.959961" width="37.9997" height="38.0165" rx="2" fill="#0077B7"/>
<g clip-path="url(#clip0)">
<path d="M26.3697 10.9614H11.6263C10.727 10.9614 9.99805 11.6908 9.99805 12.5904V27.3407C9.99805 28.2405 10.727 28.9698 11.6263 28.9698H26.3696C27.2689 28.9698 27.9979 28.2405 27.9979 27.3407V12.5904C27.9979 11.6908 27.2689 10.9614 26.3697 10.9614ZM15.568 26.511C15.568 26.7729 15.3558 26.9851 15.0941 26.9851H13.0771C12.8154 26.9851 12.6033 26.7729 12.6033 26.511V18.0518C12.6033 17.7899 12.8154 17.5777 13.0771 17.5777H15.0941C15.3558 17.5777 15.568 17.7899 15.568 18.0518V26.511ZM14.0856 16.7803C13.0274 16.7803 12.1694 15.922 12.1694 14.8632C12.1694 13.8044 13.0274 12.9461 14.0856 12.9461C15.1439 12.9461 16.0018 13.8044 16.0018 14.8632C16.0018 15.922 15.1439 16.7803 14.0856 16.7803ZM26.1089 26.5492C26.1089 26.7899 25.9138 26.9851 25.6732 26.9851H23.5088C23.2682 26.9851 23.0731 26.7899 23.0731 26.5492V22.5814C23.0731 21.9894 23.2467 19.9875 21.527 19.9875C20.193 19.9875 19.9225 21.3578 19.8682 21.9727V26.5492C19.8682 26.7899 19.6731 26.9851 19.4325 26.9851H17.3391C17.0985 26.9851 16.9035 26.7899 16.9035 26.5492V18.0136C16.9035 17.7729 17.0985 17.5777 17.3391 17.5777H19.4325C19.6731 17.5777 19.8682 17.7729 19.8682 18.0136V18.7516C20.3628 18.009 21.0978 17.4358 22.6629 17.4358C26.1287 17.4358 26.1089 20.6752 26.1089 22.4551V26.5492Z" fill="white"/>
</g>
<defs>
<clipPath id="clip0">
<rect width="17.9999" height="18.0084" fill="white" transform="translate(9.99805 10.9614)"/>
</clipPath>
</defs>
</svg>
