<svg width="145" height="34" viewBox="0 0 145 34" fill="none" xmlns="http://www.w3.org/2000/svg">
<path d="M7.06489 13.6568V24.9756C7.06489 26.9203 5.62967 28.4936 3.69431 28.4936C1.75894 28.4936 0.32373 26.9203 0.32373 24.9756V13.6786C0.32373 13.1542 0.671661 12.7172 1.19356 12.7172C1.71545 12.7172 2.06338 13.1542 2.06338 13.6786V24.9756C2.06338 25.8496 2.71575 26.5707 3.58558 26.5707C4.45541 26.5707 5.10778 25.8496 5.10778 24.9756V13.6786C5.10778 13.1542 5.56444 12.7172 6.08633 12.7172C6.60823 12.7172 7.06489 13.1324 7.06489 13.6568ZM3.58558 25.9151C4.10748 25.9151 4.45541 25.4781 4.45541 24.9537V14.9023C4.45541 14.3779 4.10748 13.9409 3.58558 13.9409C3.06368 13.9409 2.71575 14.3779 2.71575 14.9023V24.9537C2.71575 25.4781 3.06368 25.9151 3.58558 25.9151ZM3.82478 5.22235C1.91117 5.22235 0.345477 6.79562 0.345477 8.71849C0.345477 10.6414 1.91117 12.2146 3.82478 12.2146C5.7384 12.2146 7.30409 10.6414 7.30409 8.71849C7.30409 6.79562 5.7384 5.22235 3.82478 5.22235Z" fill="url(#paint0_linear)"/>
<path d="M11.4141 4.23912C11.4141 2.6003 12.8493 1.22369 14.4802 1.22369H22.3739C28.6801 1.22369 32.5074 5.06945 32.5074 10.5103V10.5759C32.5074 16.716 27.7233 19.797 21.8085 19.797H17.2854V25.1941C17.2854 26.8329 15.9807 28.1221 14.3497 28.1221C12.7188 28.1221 11.4141 26.8329 11.4141 25.1941V4.23912ZM22.0042 14.5527C24.9181 14.5527 26.4403 12.9795 26.4403 10.6851V10.6196C26.4403 7.99747 24.8094 6.46791 21.8955 6.46791H17.3071V14.5527H22.0042Z" fill="#495678"/>
<path d="M36.2041 10.2044C36.2041 8.60927 37.4436 7.32007 39.031 7.32007C40.6185 7.32007 41.858 8.60927 41.858 10.2044V11.1221C42.7278 9.15554 44.0978 7.32007 45.7939 7.32007C47.5771 7.32007 48.5991 8.50002 48.5991 10.1388C48.5991 11.6465 47.5771 12.5643 46.4246 12.8265C43.5107 13.5039 41.858 15.7545 41.858 19.8406V25.2378C41.858 26.8329 40.6185 28.1221 39.031 28.1221C37.4436 28.1221 36.2041 26.8329 36.2041 25.2378V10.2044Z" fill="#495678"/>
<path d="M50.3389 17.8304V17.7648C50.3389 11.9088 55.0577 7.16711 61.3639 7.16711C67.6267 7.16711 72.302 11.8432 72.302 17.6774V17.743C72.302 23.599 67.5832 28.3406 61.2769 28.3406C55.0142 28.3406 50.3389 23.6645 50.3389 17.8304ZM66.6481 17.8304V17.7648C66.6481 14.7712 64.4518 12.1491 61.2769 12.1491C57.9933 12.1491 55.9927 14.6838 55.9927 17.6993V17.7648C55.9927 20.7584 58.1891 23.3805 61.3639 23.3805C64.6475 23.3586 66.6481 20.8239 66.6481 17.8304Z" fill="#495678"/>
<path d="M76.3248 34C74.4764 34 73.1064 33.2789 73.1064 31.6838C73.1064 30.2853 74.1285 29.4113 75.3463 29.4113H75.3897C76.2161 29.4113 76.6727 28.865 76.6727 27.5103V10.2044C76.6727 8.60925 78.021 7.32005 79.6084 7.32005C81.1958 7.32005 82.5441 8.60925 82.5441 10.2044V27.554C82.5441 32.0334 80.1955 34 76.4118 34H76.3248ZM76.4335 2.68766C76.4335 1.02699 77.7818 0 79.5867 0C81.3916 0 82.7398 1.02699 82.7398 2.68766V2.75321C82.7398 4.41388 81.3916 5.48458 79.5867 5.48458C77.7818 5.48458 76.4335 4.41388 76.4335 2.75321V2.68766Z" fill="#495678"/>
<path d="M97.4835 28.3406C91.3947 28.3406 86.8716 24.0579 86.8716 17.8304V17.7648C86.8716 11.9525 91.025 7.16711 96.9181 7.16711C103.681 7.16711 106.682 12.6735 106.682 16.8908C106.682 18.5514 105.529 19.5784 104.007 19.5784H92.6342C93.1996 22.2005 95.0045 23.6427 97.5922 23.6427C99.1796 23.6427 100.506 23.1838 101.68 22.3098C102.094 22.0039 102.463 21.8728 103.072 21.8728C104.355 21.8728 105.29 22.8779 105.29 24.1671C105.29 24.9319 104.942 25.5 104.529 25.8715C102.746 27.3792 100.419 28.3406 97.4835 28.3406ZM101.224 16.0823C100.876 13.4602 99.3754 11.7558 96.9616 11.7558C94.5913 11.7558 93.0256 13.4602 92.569 16.0823H101.224Z" fill="#495678"/>
<path d="M109.922 17.8304V17.7648C109.922 11.9525 114.423 7.16711 120.621 7.16711C123.687 7.16711 125.883 7.99745 127.579 9.43961C127.949 9.74552 128.514 10.4229 128.514 11.4062C128.514 12.8484 127.362 13.9846 125.927 13.9846C125.166 13.9846 124.6 13.6787 124.274 13.4165C123.252 12.6298 122.099 12.1273 120.599 12.1273C117.729 12.1273 115.597 14.662 115.597 17.6774V17.743C115.597 20.8458 117.685 23.3586 120.816 23.3586C122.317 23.3586 123.535 22.8342 124.644 21.9602C124.948 21.7417 125.535 21.4358 126.209 21.4358C127.579 21.4358 128.645 22.5283 128.645 23.9049C128.645 24.6697 128.319 25.2815 127.819 25.7185C126.122 27.2699 123.883 28.3406 120.556 28.3406C114.467 28.3406 109.922 23.6427 109.922 17.8304Z" fill="#495678"/>
<path d="M133.408 22.1131V12.3676H133.386C132.016 12.3676 130.929 11.3406 130.929 9.96404C130.929 8.58743 132.016 7.56044 133.386 7.56044H133.408V5.00389C133.408 3.40877 134.756 2.11957 136.343 2.11957C137.931 2.11957 139.279 3.40877 139.279 5.00389V7.56044H141.867C143.237 7.56044 144.324 8.58743 144.324 9.96404C144.324 11.3406 143.237 12.3676 141.867 12.3676H139.279V21.1736C139.279 22.5065 139.866 23.1401 141.149 23.1401C141.345 23.1401 141.736 23.0964 141.845 23.0964C143.128 23.0964 144.237 24.1671 144.237 25.4782C144.237 26.5052 143.563 27.3355 142.758 27.6414C141.693 28.0566 140.627 28.2095 139.388 28.2095C135.887 28.2314 133.408 26.8329 133.408 22.1131Z" fill="#495678"/>
<defs>
<linearGradient id="paint0_linear" x1="6.08292" y1="4.80347" x2="0.317313" y2="33.7659" gradientUnits="userSpaceOnUse">
<stop stop-color="#FCEE21"/>
<stop offset="0.4086" stop-color="#FBB03B"/>
<stop offset="1" stop-color="#F7931E"/>
</linearGradient>
</defs>
</svg>
