<svg width="48" height="49" viewBox="0 0 48 49" fill="none" xmlns="http://www.w3.org/2000/svg">
<path d="M47.9124 11.3978C47.7472 10.7832 47.3442 10.2592 46.7927 9.94155C46.2408 9.62231 45.5847 9.53596 44.9692 9.70124C44.3544 9.86691 43.8307 10.2698 43.5132 10.8215L43.1132 11.5178C42.7332 11.2994 42.2478 11.4279 42.0255 11.8062L39.9939 15.2709L39.2979 14.8707C39.1135 14.7641 38.894 14.7351 38.6886 14.7906C38.4828 14.8465 38.3078 14.9817 38.202 15.1669C37.9852 15.5494 38.1172 16.0355 38.498 16.2551L39.194 16.6552L32.3952 28.4427L30.7154 32.9323L29.9155 34.4284C29.4472 35.2435 29.4972 36.2567 30.0436 37.0214L28.2439 39.2299L27.7401 37.9658C27.5128 37.4024 26.9867 37.0163 26.3817 36.969C25.7764 36.9214 25.1964 37.2207 24.8843 37.7415L24.5965 38.2296L24.3247 35.0286C24.2622 34.2714 23.6759 33.6626 22.9222 33.5712C22.168 33.4801 21.454 33.9322 21.2131 34.6527L19.2454 40.5584C19.108 40.9761 19.3329 41.4262 19.7493 41.5669C19.8274 41.6032 19.9113 41.6251 19.9973 41.6306C20.341 41.6317 20.6472 41.4125 20.7573 41.0867L22.7167 35.181L22.9968 38.4296C23.0546 39.1228 23.5525 39.6991 24.2297 39.8562C24.907 40.0133 25.6076 39.7148 25.9642 39.1181L26.2603 38.6297L26.7563 39.8863C26.9668 40.4158 27.4429 40.7936 28.0064 40.8776C28.57 40.9616 29.1356 40.7393 29.4917 40.2942L31.3555 37.9338C31.5617 37.9877 31.7742 38.0147 31.9874 38.0139C32.8447 38.0205 33.6406 37.5688 34.0749 36.8292L34.8748 35.4928L37.9223 31.7878L44.793 19.8562L45.489 20.2563C45.6745 20.3626 45.8097 20.538 45.8647 20.7447C45.9202 20.9499 45.8913 21.1687 45.7851 21.3527L42.5856 26.8985C42.4649 27.0806 42.4239 27.3041 42.4723 27.5174C42.5208 27.7304 42.6539 27.9144 42.8414 28.0266C43.0258 28.1336 43.2453 28.1625 43.4507 28.1071C43.6565 28.0512 43.8315 27.916 43.9373 27.7308L47.1368 22.185C47.4559 21.6329 47.5422 20.9764 47.3766 20.3606C47.211 19.7456 46.8083 19.2216 46.2568 18.904L45.5609 18.5038L47.5605 15.0388C47.7789 14.6586 47.6504 14.1733 47.2727 13.9505L47.6726 13.2542C48.0003 12.6935 48.087 12.0238 47.9124 11.3978ZM44.8969 11.6217C45.0028 11.4365 45.1785 11.3009 45.3851 11.2458C45.5906 11.195 45.8077 11.2236 45.9928 11.3259C46.1783 11.4318 46.3135 11.6077 46.3689 11.814C46.4197 12.0195 46.3912 12.2368 46.2889 12.422L45.8889 13.1183L44.497 12.318L44.8969 11.6217ZM33.9949 33.9646L33.5949 33.7325L32.4112 33.0441L33.5469 30.0033L36.0664 31.4596L33.9949 33.9646ZM31.5953 36.277C31.2575 36.0414 31.1536 35.5882 31.3555 35.2287L31.7554 34.5328L33.147 35.333L32.747 36.0211C32.635 36.2157 32.4467 36.354 32.2276 36.4029C32.0085 36.4513 31.7792 36.406 31.5953 36.277ZM36.9784 30.1475L34.2109 28.547L40.6098 17.4555L43.3773 19.056L36.9784 30.1475ZM44.1771 17.6716L41.4096 16.0711L43.0094 13.3023L45.7769 14.9028L44.1771 17.6716Z" fill="#121212"/>
<path d="M12.622 35.8755L9.79088 38.6999L8.09508 37.0037C7.78302 36.6935 7.2792 36.6935 6.96715 37.0037C6.81561 37.1541 6.73047 37.3584 6.73047 37.5717C6.73047 37.785 6.81561 37.9897 6.96715 38.1397L8.66295 39.836C8.9629 40.1336 9.3683 40.3004 9.79088 40.3001C10.2158 40.3024 10.6247 40.1356 10.9266 39.836L13.75 37.0037C14.0218 36.6861 14.0034 36.213 13.7082 35.9177C13.4125 35.6219 12.9396 35.6036 12.622 35.8755Z" fill="#121212"/>
<path d="M3.19922 38.0288C3.19922 41.7858 6.24323 44.8308 9.99806 44.8308C13.7529 44.8308 16.7969 41.7858 16.7969 38.0288C16.7969 37.5869 16.4388 37.2286 15.997 37.2286C15.5553 37.2286 15.1972 37.5869 15.1972 38.0288C15.1972 40.9016 12.8694 43.2304 9.99806 43.2304C7.12668 43.2304 4.79895 40.9016 4.79895 38.0288C4.79895 35.1561 7.12668 32.8273 9.99806 32.8273C11.1237 32.8242 12.2192 33.1895 13.1175 33.8678C13.4709 34.1332 13.9724 34.0613 14.2372 33.7076C14.5024 33.354 14.4309 32.8527 14.0774 32.5874C12.0172 31.0416 9.26069 30.7931 6.95756 31.945C4.65405 33.0973 3.19922 35.4527 3.19922 38.0288Z" fill="#121212"/>
<path d="M28.7956 6.41981C29.2373 6.41981 29.5954 6.06189 29.5954 5.61957C29.5954 5.17764 29.2373 4.81934 28.7956 4.81934H7.99908C7.55736 4.81934 7.19922 5.17764 7.19922 5.61957V8.82051C7.19922 9.26283 7.55736 9.62075 7.99908 9.62075H28.7956C29.2373 9.62075 29.5954 9.26283 29.5954 8.82051C29.5954 8.37859 29.2373 8.02028 28.7956 8.02028H8.79895V6.41981H28.7956Z" fill="#121212"/>
<path d="M10.3975 11.2212C9.9558 11.2212 9.59766 11.5793 9.59766 12.0211C9.59766 12.4632 9.9558 12.8209 10.3975 12.8209H26.3948C26.8365 12.8209 27.1947 12.4632 27.1947 12.0211C27.1947 11.5793 26.8365 11.2212 26.3948 11.2212H10.3975Z" fill="#121212"/>
<path d="M31.1947 16.8228H13.5977C13.156 16.8228 12.7979 17.1809 12.7979 17.6226C12.7979 18.0647 13.156 18.4225 13.5977 18.4225H31.1947C31.6364 18.4225 31.9946 18.0647 31.9946 17.6226C31.9946 17.1809 31.6364 16.8228 31.1947 16.8228Z" fill="#121212"/>
<path d="M23.1966 22.4244C23.1966 21.9827 22.8385 21.6245 22.3967 21.6245H6.39947C5.95775 21.6245 5.59961 21.9827 5.59961 22.4244C5.59961 22.8665 5.95775 23.2242 6.39947 23.2242H22.3967C22.8385 23.2242 23.1966 22.8665 23.1966 22.4244Z" fill="#121212"/>
<path d="M31.1948 21.6245H25.5958C25.154 21.6245 24.7959 21.9827 24.7959 22.4244C24.7959 22.8665 25.154 23.2242 25.5958 23.2242H31.1948C31.6365 23.2242 31.9947 22.8665 31.9947 22.4244C31.9947 21.9827 31.6365 21.6245 31.1948 21.6245Z" fill="#121212"/>
<path d="M14.3981 27.2252C14.8398 27.2252 15.198 26.8675 15.198 26.4254C15.198 25.9836 14.8398 25.6255 14.3981 25.6255H6.39947C5.95775 25.6255 5.59961 25.9836 5.59961 26.4254C5.59961 26.8675 5.95775 27.2252 6.39947 27.2252H14.3981Z" fill="#121212"/>
<path d="M17.5967 27.2252H23.1958C23.6375 27.2252 23.9957 26.8675 23.9957 26.4254C23.9957 25.9836 23.6375 25.6255 23.1958 25.6255H17.5967C17.155 25.6255 16.7969 25.9836 16.7969 26.4254C16.7969 26.8675 17.155 27.2252 17.5967 27.2252Z" fill="#121212"/>
<path d="M35.9939 36.8278C35.5521 36.8278 35.194 37.1861 35.194 37.628V45.6301C35.194 46.0724 34.8359 46.4303 34.3941 46.4303H2.39959C1.95787 46.4303 1.59973 46.0724 1.59973 45.6301V2.4187C1.59973 1.97679 1.95787 1.61849 2.39959 1.61849H34.3941C34.8359 1.61849 35.194 1.97679 35.194 2.4187V17.4469C35.194 17.8888 35.5521 18.2471 35.9939 18.2471C36.4356 18.2471 36.7937 17.8888 36.7937 17.4469V2.4187C36.7937 1.09296 35.7193 0.0180664 34.3941 0.0180664H2.39959C1.07443 0.0180664 0 1.09296 0 2.4187V45.6301C0 46.9562 1.07443 48.0307 2.39959 48.0307H34.3941C35.7193 48.0307 36.7937 46.9562 36.7937 45.6301V37.628C36.7937 37.1861 36.4356 36.8278 35.9939 36.8278Z" fill="#121212"/>
</svg>
