<svg width="38" height="39" viewBox="0 0 38 39" fill="none" xmlns="http://www.w3.org/2000/svg">
<rect y="0.82959" width="37.9997" height="38.0165" rx="2" fill="#00ACEE"/>
<path d="M26.1999 10.8311H11.8C10.81 10.8311 10 11.6439 10 12.6374V27.0883C10 28.0818 10.81 28.8947 11.8 28.8947H26.1999C27.1899 28.8947 27.9999 28.0818 27.9999 27.0883V12.6374C27.9999 11.6439 27.1899 10.8311 26.1999 10.8311ZM24.1299 17.4243C24.0399 21.5789 21.4299 24.4691 17.4699 24.6497C15.85 24.74 14.68 24.1981 13.6 23.5659C14.77 23.7466 16.3 23.295 17.11 22.5724C15.94 22.4821 15.22 21.8499 14.86 20.8564C15.22 20.9467 15.58 20.8564 15.85 20.8564C14.77 20.4951 14.05 19.8629 13.96 18.4178C14.23 18.5984 14.59 18.6887 14.95 18.6887C14.14 18.2371 13.6 16.5211 14.23 15.4373C15.4 16.7017 16.84 17.7855 19.1799 17.9662C18.5499 15.4373 21.97 14.0825 23.3199 15.7985C23.9499 15.7082 24.3999 15.4373 24.8499 15.2566C24.6699 15.8889 24.3099 16.2501 23.8599 16.6114C24.3099 16.5211 24.7599 16.4308 25.1199 16.2501C25.0299 16.7017 24.5799 17.063 24.1299 17.4243Z" fill="white"/>
</svg>
